999
dxfrw 0.6.3
  0
SECTION
  2
HEADER
  9
$ACADVER
  1
AC1027
  9
$DWGCODEPAGE
  3

  9
$INSBASE
 10
0
 20
0
 30
0
  9
$EXTMIN
 10
-174.4016477092201
 20
-67.57653479443178
 30
0
  9
$EXTMAX
 10
64.97000331158429
 20
171.8011865754238
 30
0
  9
$LIMMIN
 10
0
 20
0
  9
$LIMMAX
 10
420
 20
297
  9
$ORTHOMODE
 70
    0
  9
$REGENMODE
 70
    1
  9
$FILLMODE
 70
    1
  9
$QTEXTMODE
 70
    0
  9
$MIRRTEXT
 70
    0
  9
$LTSCALE
 40
1
  9
$ATTMODE
 70
    0
  9
$TEXTSIZE
 40
2.5
  9
$TRACEWID
 40
15.68
  9
$TEXTSTYLE
  7
STANDARD
  9
$CLAYER
  8
0
  9
$CELTYPE
  6
BYLAYER
  9
$CECOLOR
 62
  256
  9
$CELTSCALE
 40
1
  9
$DISPSILH
 70
    0
  9
$DIMSCALE
 40
2.5
  9
$DIMASZ
 40
2.5
  9
$DIMEXO
 40
0.625
  9
$DIMDLI
 40
3.75
  9
$DIMRND
 40
0
  9
$DIMDLE
 40
0
  9
$DIMEXE
 40
1.25
  9
$DIMTP
 40
0
  9
$DIMTM
 40
0
  9
$DIMTXT
 40
2.5
  9
$DIMCEN
 40
2.5
  9
$DIMTSZ
 40
0
  9
$DIMTOL
 70
    0
  9
$DIMLIM
 70
    0
  9
$DIMTIH
 70
    0
  9
$DIMTOH
 70
    0
  9
$DIMSE1
 70
    0
  9
$DIMSE2
 70
    0
  9
$DIMTAD
 70
    1
  9
$DIMZIN
 70
    8
  9
$DIMBLK
  1

  9
$DIMASO
 70
    1
  9
$DIMSHO
 70
    1
  9
$DIMPOST
  1

  9
$DIMAPOST
  1

  9
$DIMALT
 70
    0
  9
$DIMALTD
 70
    3
  9
$DIMALTF
 40
0.03937
  9
$DIMLFAC
 40
1
  9
$DIMTOFL
 70
    1
  9
$DIMTVP
 40
0
  9
$DIMTIX
 70
    0
  9
$DIMSOXD
 70
    0
  9
$DIMSAH
 70
    0
  9
$DIMBLK1
  1

  9
$DIMBLK2
  1

  9
$DIMSTYLE
  2
STANDARD
  9
$DIMCLRD
 70
    0
  9
$DIMCLRE
 70
    0
  9
$DIMCLRT
 70
    0
  9
$DIMTFAC
 40
1
  9
$DIMGAP
 40
0.625
  9
$DIMJUST
 70
    0
  9
$DIMSD1
 70
    0
  9
$DIMSD2
 70
    0
  9
$DIMTOLJ
 70
    0
  9
$DIMTZIN
 70
    8
  9
$DIMALTZ
 70
    0
  9
$DIMALTTZ
 70
    0
  9
$DIMUPT
 70
    0
  9
$DIMDEC
 70
    2
  9
$DIMTDEC
 70
    2
  9
$DIMALTU
 70
    2
  9
$DIMALTTD
 70
    3
  9
$DIMTXSTY
  7
STANDARD
  9
$DIMAUNIT
 70
    0
  9
$DIMADEC
 70
    0
  9
$DIMALTRND
 40
0
  9
$DIMAZIN
 70
    0
  9
$DIMDSEP
 70
   44
  9
$DIMATFIT
 70
    3
  9
$DIMFRAC
 70
    0
  9
$DIMLDRBLK
  1
STANDARD
  9
$DIMLUNIT
 70
    2
  9
$DIMLWD
 70
   -2
  9
$DIMLWE
 70
   -2
  9
$DIMTMOVE
 70
    0
  9
$DIMFXL
 40
1
  9
$DIMFXLON
 70
    0
  9
$DIMJOGANG
 40
0.7854
  9
$DIMTFILL
 70
    0
  9
$DIMTFILLCLR
 70
    0
  9
$DIMARCSYM
 70
    0
  9
$DIMLTYPE
  6

  9
$DIMLTEX1
  6

  9
$DIMLTEX2
  6

  9
$DIMTXTDIRECTION
 70
    0
  9
$LUNITS
 70
    2
  9
$LUPREC
 70
    4
  9
$SKETCHINC
 40
1
  9
$FILLETRAD
 40
0
  9
$AUNITS
 70
    0
  9
$AUPREC
 70
    2
  9
$MENU
  1
.
  9
$ELEVATION
 40
0
  9
$PELEVATION
 40
0
  9
$THICKNESS
 40
0
  9
$LIMCHECK
 70
    0
  9
$CHAMFERA
 40
0
  9
$CHAMFERB
 40
0
  9
$CHAMFERC
 40
0
  9
$CHAMFERD
 40
0
  9
$SKPOLY
 70
    0
  9
$USRTIMER
 70
    1
  9
$ANGBASE
 50
0
  9
$ANGDIR
 70
    0
  9
$PDMODE
 70
   34
  9
$PDSIZE
 40
0
  9
$PLINEWID
 40
0
  9
$SPLFRAME
 70
    0
  9
$SPLINETYPE
 70
    2
  9
$SPLINESEGS
 70
    8
  9
$HANDSEED
  5
20000
  9
$SURFTAB1
 70
    6
  9
$SURFTAB2
 70
    6
  9
$SURFTYPE
 70
    6
  9
$SURFU
 70
    6
  9
$SURFV
 70
    6
  9
$UCSBASE
  2

  9
$UCSNAME
  2

  9
$UCSORG
 10
0
 20
0
 30
0
  9
$UCSXDIR
 10
1
 20
0
 30
0
  9
$UCSYDIR
 10
0
 20
1
 30
0
  9
$UCSORTHOREF
  2

  9
$UCSORTHOVIEW
 70
    0
  9
$UCSORGTOP
 10
0
 20
0
 30
0
  9
$UCSORGBOTTOM
 10
0
 20
0
 30
0
  9
$UCSORGLEFT
 10
0
 20
0
 30
0
  9
$UCSORGRIGHT
 10
0
 20
0
 30
0
  9
$UCSORGFRONT
 10
0
 20
0
 30
0
  9
$UCSORGBACK
 10
0
 20
0
 30
0
  9
$PUCSBASE
  2

  9
$PUCSNAME
  2

  9
$PUCSORG
 10
0
 20
0
 30
0
  9
$PUCSXDIR
 10
1
 20
0
 30
0
  9
$PUCSYDIR
 10
0
 20
1
 30
0
  9
$PUCSORTHOREF
  2

  9
$PUCSORTHOVIEW
 70
    0
  9
$PUCSORGTOP
 10
0
 20
0
 30
0
  9
$PUCSORGBOTTOM
 10
0
 20
0
 30
0
  9
$PUCSORGLEFT
 10
0
 20
0
 30
0
  9
$PUCSORGRIGHT
 10
0
 20
0
 30
0
  9
$PUCSORGFRONT
 10
0
 20
0
 30
0
  9
$PUCSORGBACK
 10
0
 20
0
 30
0
  9
$USERI1
 70
    0
  9
$USERI2
 70
    0
  9
$USERI3
 70
    0
  9
$USERI4
 70
    0
  9
$USERI5
 70
    0
  9
$USERR1
 40
0
  9
$USERR2
 40
0
  9
$USERR3
 40
0
  9
$USERR4
 40
0
  9
$USERR5
 40
0
  9
$WORLDVIEW
 70
    1
  9
$SHADEDGE
 70
    3
  9
$SHADEDIF
 70
   70
  9
$TILEMODE
 70
    1
  9
$MAXACTVP
 70
   64
  9
$PINSBASE
 10
0
 20
0
 30
0
  9
$PLIMCHECK
 70
    0
  9
$PEXTMIN
 10
0
 20
0
 30
0
  9
$PEXTMAX
 10
0
 20
0
 30
0
  9
$PLIMMIN
 10
0
 20
0
  9
$PLIMMAX
 10
297
 20
210
  9
$UNITMODE
 70
    0
  9
$VISRETAIN
 70
    1
  9
$PLINEGEN
 70
    0
  9
$PSLTSCALE
 70
    1
  9
$TREEDEPTH
 70
 3020
  9
$CMLSTYLE
  2
Standard
  9
$CMLJUST
 70
    0
  9
$CMLSCALE
 40
20
  9
$PROXYGRAPHICS
 70
    1
  9
$MEASUREMENT
 70
    1
  9
$CELWEIGHT
370
   -1
  9
$ENDCAPS
280
    0
  9
$JOINSTYLE
280
    0
  9
$LWDISPLAY
290
    0
  9
$INSUNITS
 70
    4
  9
$HYPERLINKBASE
  1

  9
$STYLESHEET
  1

  9
$XEDIT
290
    1
  9
$CEPSNTYPE
380
    0
  9
$PSTYLEMODE
290
    1
  9
$EXTNAMES
290
    1
  9
$PSVPSCALE
 40
0
  9
$OLESTARTUP
290
    0
  9
$SORTENTS
280
  127
  9
$INDEXCTL
280
    0
  9
$HIDETEXT
280
    1
  9
$XCLIPFRAME
280
    0
  9
$HALOGAP
280
    0
  9
$OBSCOLOR
 70
  257
  9
$OBSLTYPE
280
    0
  9
$INTERSECTIONDISPLAY
280
    0
  9
$INTERSECTIONCOLOR
 70
  257
  9
$DIMASSOC
280
    1
  9
$PROJECTNAME
  1

  9
$CAMERADISPLAY
290
    0
  9
$LENSLENGTH
 40
50
  9
$CAMERAHEIGHT
 40
0
  9
$STEPSPERSEC
 40
2
  9
$STEPSIZE
 40
50
  9
$3DDWFPREC
 40
2
  9
$PSOLWIDTH
 40
5
  9
$PSOLHEIGHT
 40
80
  9
$LOFTANG1
 40
1.570796326794897
  9
$LOFTANG2
 40
1.570796326794897
  9
$LOFTMAG1
 40
0
  9
$LOFTMAG2
 40
0
  9
$LOFTPARAM
 70
    7
  9
$LOFTNORMALS
280
    1
  9
$LATITUDE
 40
1
  9
$LONGITUDE
 40
1
  9
$NORTHDIRECTION
 40
0
  9
$TIMEZONE
 70
-8000
  9
$LIGHTGLYPHDISPLAY
280
    1
  9
$TILEMODELIGHTSYNCH
280
    1
  9
$SOLIDHIST
280
    1
  9
$SHOWHIST
280
    1
  9
$DWFFRAME
280
    2
  9
$DGNFRAME
280
    0
  9
$REALWORLDSCALE
290
    1
  9
$INTERFERECOLOR
 62
    1
  9
$CSHADOW
280
    0
  9
$SHADOWPLANELOCATION
 40
0
  0
ENDSEC
  0
SECTION
  2
CLASSES
  0
ENDSEC
  0
SECTION
  2
TABLES
  0
TABLE
  2
VPORT
  5
8
330
0
100
AcDbSymbolTable
 70
    1
  0
VPORT
  5
31
330
2
100
AcDbSymbolTableRecord
100
AcDbViewportTableRecord
  2
*ACTIVE
 70
    0
 10
0
 20
0
 11
1
 21
1
 12
0.651828
 22
-0.16
 13
0
 23
0
 14
10
 24
10
 15
10
 25
10
 16
0
 26
0
 36
1
 17
0
 27
0
 37
0
 40
5.13732
 41
2.4426877
 42
50
 43
0
 44
0
 50
0
 51
0
 71
    0
 72
  100
 73
    1
 74
    3
 75
    0
 76
    0
 77
    0
 78
    0
281
    0
 65
    1
110
0
120
0
130
0
111
1
121
0
131
0
112
0
122
1
132
0
 79
    0
146
0
348
10020
 60
    7
 61
    5
292
1
282
    1
141
0
142
0
 63
  250
421
3358443
  0
ENDTAB
  0
TABLE
  2
LTYPE
  5
5
330
0
100
AcDbSymbolTable
 70
    4
  0
LTYPE
  5
14
330
5
100
AcDbSymbolTableRecord
100
AcDbLinetypeTableRecord
  2
ByBlock
 70
    0
  3

 72
   65
 73
    0
 40
0
  0
LTYPE
  5
15
330
5
100
AcDbSymbolTableRecord
100
AcDbLinetypeTableRecord
  2
ByLayer
 70
    0
  3

 72
   65
 73
    0
 40
0
  0
LTYPE
  5
16
330
5
100
AcDbSymbolTableRecord
100
AcDbLinetypeTableRecord
  2
Continuous
 70
    0
  3
Solid line
 72
   65
 73
    0
 40
0
  0
ENDTAB
  0
TABLE
  2
LAYER
  5
2
330
0
100
AcDbSymbolTable
 70
    1
  0
LAYER
  5
10
330
2
100
AcDbSymbolTableRecord
100
AcDbLayerTableRecord
  2
0
 70
    0
 62
    7
  6
CONTINUOUS
370
   -3
390
F
  0
ENDTAB
  0
TABLE
  2
STYLE
  5
3
330
0
100
AcDbSymbolTable
 70
    3
  0
STYLE
  5
32
330
2
100
AcDbSymbolTableRecord
100
AcDbTextStyleTableRecord
  2
Standard
 70
    0
 40
0
 41
1
 50
0
 71
    0
 42
1
  3
txt
  4

  0
ENDTAB
  0
TABLE
  2
VIEW
  5
6
330
0
100
AcDbSymbolTable
 70
    0
  0
ENDTAB
  0
TABLE
  2
UCS
  5
7
330
0
100
AcDbSymbolTable
 70
    0
  0
ENDTAB
  0
TABLE
  2
APPID
  5
9
330
0
100
AcDbSymbolTable
 70
    1
  0
APPID
  5
12
330
9
100
AcDbSymbolTableRecord
100
AcDbRegAppTableRecord
  2
ACAD
 70
    0
  0
ENDTAB
  0
TABLE
  2
DIMSTYLE
  5
A
330
0
100
AcDbSymbolTable
 70
    1
100
AcDbDimStyleTable
 71
    1
  0
DIMSTYLE
105
33
330
A
100
AcDbSymbolTableRecord
100
AcDbDimStyleTableRecord
  2
Standard
 70
    0
 40
1
 41
0.18
 42
0.0625
 43
0.38
 44
0.18
 45
0
 46
0
 47
0
 48
0
 49
1
140
0.18
141
0.09
142
0
143
25.4
144
1
145
0
146
1
147
0.09
148
0
 71
    0
 72
    0
 73
    0
 74
    1
 75
    0
 76
    0
 77
    0
 78
    0
 79
    0
170
    0
171
    2
172
    0
173
    0
174
    0
175
    0
176
    0
177
    0
178
    0
179
    0
271
    4
272
    4
273
    2
274
    2
275
    0
276
    0
277
    2
278
   46
279
    0
280
    0
281
    0
282
    0
283
    1
284
    0
285
    0
286
    0
288
    0
289
    3
340
Standard
341

371
   -2
372
   -2
  0
ENDTAB
  0
TABLE
  2
BLOCK_RECORD
  5
1
330
0
100
AcDbSymbolTable
 70
    2
  0
BLOCK_RECORD
  5
1F
330
1
100
AcDbSymbolTableRecord
100
AcDbBlockTableRecord
  2
*Model_Space
 70
    0
280
    1
281
    0
  0
BLOCK_RECORD
  5
1E
330
1
100
AcDbSymbolTableRecord
100
AcDbBlockTableRecord
  2
*Paper_Space
 70
    0
280
    1
281
    0
  0
ENDTAB
  0
ENDSEC
  0
SECTION
  2
BLOCKS
  0
BLOCK
  5
20
330
1F
100
AcDbEntity
  8
0
100
AcDbBlockBegin
  2
*Model_Space
 70
    0
 10
0
 20
0
 30
0
  3
*Model_Space
  1

  0
ENDBLK
  5
21
330
1F
100
AcDbEntity
  8
0
100
AcDbBlockEnd
  0
BLOCK
  5
1C
330
1B
100
AcDbEntity
  8
0
100
AcDbBlockBegin
  2
*Paper_Space
 70
    0
 10
0
 20
0
 30
0
  3
*Paper_Space
  1

  0
ENDBLK
  5
1D
330
1F
100
AcDbEntity
  8
0
100
AcDbBlockEnd
  0
ENDSEC
  0
SECTION
  2
ENTITIES
  0
LINE
  5
34
100
AcDbEntity
  8
0
  6
BYLAYER
 62
  256
370
   -1
100
AcDbLine
 10
-168.7407836914062
 20
138.6092834472657
 11
-168.7407836914062
 21
-32.89071655273438
  0
LINE
  5
35
100
AcDbEntity
  8
0
  6
BYLAYER
 62
  256
370
   -1
100
AcDbLine
 10
-168.7407836914062
 20
-32.89071655273438
 11
59.30920410156275
 21
-32.89071655273438
  0
LINE
  5
36
100
AcDbEntity
  8
0
  6
BYLAYER
 62
  256
370
   -1
100
AcDbLine
 10
-49.72058105468725
 20
-2.663406372070273
 11
-52.07159423828125
 21
-2.827117919921875
  0
LINE
  5
37
100
AcDbEntity
  8
0
  6
BYLAYER
 62
  256
370
   -1
100
AcDbLine
 10
-18.57751464843724
 20
73.51071166992162
 11
-17.55090332031224
 21
71.67375183105463
  0
LINE
  5
38
100
AcDbEntity
  8
0
  6
BYLAYER
 62
  256
370
   -1
100
AcDbLine
 10
59.30920410156275
 20
-32.89071655273438
 11
59.30920410156275
 21
138.6092834472657
  0
LINE
  5
39
100
AcDbEntity
  8
0
  6
BYLAYER
 62
  256
370
   -1
100
AcDbLine
 10
59.30920410156275
 20
138.6092834472657
 11
-168.7407836914062
 21
138.6092834472657
  0
CIRCLE
  5
3A
100
AcDbEntity
  8
0
  6
BYLAYER
 62
  256
370
   -1
100
AcDbCircle
 10
-2.215339341849764
 20
-0.3853035327072261
 40
2.246872865968419
  0
CIRCLE
  5
3B
100
AcDbEntity
  8
0
  6
BYLAYER
 62
  256
370
   -1
100
AcDbCircle
 10
-2.215799864988695
 20
104.6092927645282
 40
2.250004566551693
  0
CIRCLE
  5
3C
100
AcDbEntity
  8
0
  6
BYLAYER
 62
  256
370
   -1
100
AcDbCircle
 10
-107.2158191754637
 20
104.6092849186413
 40
2.250010791589642
  0
CIRCLE
  5
3D
100
AcDbEntity
  8
0
  6
BYLAYER
 62
  256
370
   -1
100
AcDbCircle
 10
-107.2158308837753
 20
-0.3907189546831499
 40
2.249999471098671
  0
ARC
  5
3E
100
AcDbEntity
  8
0
  6
BYLAYER
 62
  256
370
   -1
100
AcDbCircle
 10
-105.0849292393587
 20
36.34411949027699
 40
67.7259043779795
100
AcDbArc
 50
-35.16700728933514
 51
-23.11694278164618
  0
ARC
  5
3F
100
AcDbEntity
  8
0
  6
BYLAYER
 62
  256
370
   -1
100
AcDbCircle
 10
-104.0704159089547
 20
36.56464702259039
 40
69.17117171727398
100
AcDbArc
 50
-34.21278046930377
 51
-21.98178901179861
  0
ARC
  5
40
100
AcDbEntity
  8
0
  6
BYLAYER
 62
  256
370
   -1
100
AcDbCircle
 10
-90.45416284901717
 20
13.27169841923804
 40
67.7259043779795
100
AcDbArc
 50
-5.167007289335135
 51
6.883079338665022
  0
ARC
  5
41
100
AcDbEntity
  8
0
  6
BYLAYER
 62
  256
370
   -1
100
AcDbCircle
 10
-66.24733694262636
 20
0.6057788400777113
 40
67.7259043779795
100
AcDbArc
 50
24.83299271066486
 51
36.88307933866506
  0
ARC
  5
42
100
AcDbEntity
  8
0
  6
BYLAYER
 62
  256
370
   -1
100
AcDbCircle
 10
-38.9506509731245
 20
1.740183675429563
 40
67.7259043779795
100
AcDbArc
 50
54.83299271066487
 51
66.88307933866506
  0
ARC
  5
43
100
AcDbEntity
  8
0
  6
BYLAYER
 62
  256
370
   -1
100
AcDbCircle
 10
-15.87822990208555
 20
16.37095006577109
 40
67.7259043779795
100
AcDbArc
 50
84.83299271066485
 51
96.88307933866504
  0
ARC
  5
44
100
AcDbEntity
  8
0
  6
BYLAYER
 62
  256
370
   -1
100
AcDbCircle
 10
-3.212310322925212
 20
40.5777759721619
 40
67.7259043779795
100
AcDbArc
 50
114.8329927106649
 51
126.8830793386651
  0
ARC
  5
45
100
AcDbEntity
  8
0
  6
BYLAYER
 62
  256
370
   -1
100
AcDbCircle
 10
-4.346715158277064
 20
67.87446194166375
 40
67.7259043779795
100
AcDbArc
 50
144.8329927106649
 51
156.883079338665
  0
ARC
  5
46
100
AcDbEntity
  8
0
  6
BYLAYER
 62
  256
370
   -1
100
AcDbCircle
 10
-106.2193340747105
 20
63.64080545977887
 40
67.7259043779795
100
AcDbArc
 50
-65.16700728933517
 51
-38.8761776500257
  0
ARC
  5
47
100
AcDbEntity
  8
0
  6
BYLAYER
 62
  256
370
   -1
100
AcDbCircle
 10
-89.68583229856608
 20
13.96993752965732
 40
69.17117171727398
100
AcDbArc
 50
-4.21278046930377
 51
8.013777642981148
  0
ARC
  5
48
100
AcDbEntity
  8
0
  6
BYLAYER
 62
  256
370
   -1
100
AcDbCircle
 10
-65.93106272264168
 20
1.594636922842191
 40
69.17117171727398
100
AcDbArc
 50
25.78721953069623
 51
38.0137776429811
  0
ARC
  5
49
100
AcDbEntity
  8
0
  6
BYLAYER
 62
  256
370
   -1
100
AcDbCircle
 10
-39.17117850543789
 20
2.754697005833506
 40
69.17117171727398
100
AcDbArc
 50
55.78721953069623
 51
68.01377764298113
  0
ARC
  5
4A
100
AcDbEntity
  8
0
  6
BYLAYER
 62
  256
370
   -1
100
AcDbCircle
 10
-16.57646901250482
 20
17.13928061622217
 40
69.17117171727398
100
AcDbArc
 50
85.78721953069622
 51
98.01377764298114
  0
ARC
  5
4B
100
AcDbEntity
  8
0
  6
BYLAYER
 62
  256
370
   -1
100
AcDbCircle
 10
-4.201168405689685
 20
40.89405019214657
 40
69.17117171727398
100
AcDbArc
 50
115.7872195306962
 51
128.0137776429811
  0
ARC
  5
4C
100
AcDbEntity
  8
0
  6
BYLAYER
 62
  256
370
   -1
100
AcDbCircle
 10
-5.361228488681007
 20
67.65393440935036
 40
69.17117171727398
100
AcDbArc
 50
145.7872195306962
 51
158.0137776429811
  0
ARC
  5
4D
100
AcDbEntity
  8
0
  6
BYLAYER
 62
  256
370
   -1
100
AcDbCircle
 10
-105.2304759919461
 20
63.32453123979421
 40
69.17117171727398
100
AcDbArc
 50
-64.21278046930378
 51
-37.26319677436863
  0
ARC
  5
4E
100
AcDbEntity
  8
0
  6
BYLAYER
 62
  256
370
   -1
100
AcDbCircle
 10
-54.71582219881788
 20
52.10929071597037
 40
43.99999468744277
100
AcDbArc
 50
-100.3638334275002
 51
-74.28330430109344
  0
ARC
  5
4F
100
AcDbEntity
  8
0
  6
BYLAYER
 62
  256
370
   -1
100
AcDbCircle
 10
-54.71582219881788
 20
52.10929071597037
 40
42.00000253008258
100
AcDbArc
 50
-97.98981088060621
 51
-72.13934824456551
  0
ARC
  5
50
100
AcDbEntity
  8
0
  6
BYLAYER
 62
  256
370
   -1
100
AcDbCircle
 10
-54.71582219881788
 20
52.10929071597037
 40
54.99999480171349
100
AcDbArc
 50
-81.7976080384144
 51
-54.78907019460184
  0
ARC
  5
51
100
AcDbEntity
  8
0
  6
BYLAYER
 62
  256
370
   -1
100
AcDbCircle
 10
-54.71582219881788
 20
52.10929071597037
 40
54.99999480171349
100
AcDbArc
 50
-141.7976080384144
 51
-84.78907019460183
  0
ARC
  5
52
100
AcDbEntity
  8
0
  6
BYLAYER
 62
  256
370
   -1
100
AcDbCircle
 10
-54.71582219881788
 20
52.10929071597037
 40
42.00000253008258
100
AcDbArc
 50
-127.9786845104117
 51
-102.1393533587394
  0
ARC
  5
53
100
AcDbEntity
  8
0
  6
BYLAYER
 62
  256
370
   -1
100
AcDbCircle
 10
-54.71582219881788
 20
52.10929071597037
 40
43.99999468744277
100
AcDbArc
 50
-130.3532822159951
 51
-104.2832701994543
  0
ARC
  5
54
100
AcDbEntity
  8
0
  6
BYLAYER
 62
  256
370
   -1
100
AcDbCircle
 10
-54.71582219881788
 20
52.10929071597037
 40
31.00000347636376
100
AcDbArc
 50
-111.5859538911551
 51
-87.74198533542027
  0
ARC
  5
55
100
AcDbEntity
  8
0
  6
BYLAYER
 62
  256
370
   -1
100
AcDbCircle
 10
-54.71582219881788
 20
52.10929071597037
 40
29.00000993213511
100
AcDbArc
 50
-107.5644995651425
 51
-84.33941939293206
  0
ARC
  5
56
100
AcDbEntity
  8
0
  6
BYLAYER
 62
  256
370
   -1
100
AcDbCircle
 10
-54.71582219881788
 20
52.10929071597037
 40
31.00000347636376
100
AcDbArc
 50
-81.5859538911552
 51
-57.74199984330265
  0
ARC
  5
57
100
AcDbEntity
  8
0
  6
BYLAYER
 62
  256
370
   -1
100
AcDbCircle
 10
-106.2193340747105
 20
63.64080545977887
 40
67.7259043779795
100
AcDbArc
 50
-36.61079367972594
 51
-22.19504375478287
  0
ARC
  5
58
100
AcDbEntity
  8
0
  6
BYLAYER
 62
  256
370
   -1
100
AcDbCircle
 10
-54.71582219881788
 20
52.10929071597037
 40
29.00000993213511
100
AcDbArc
 50
-77.56449956514265
 51
-54.3394309250099
  0
ARC
  5
59
100
AcDbEntity
  8
0
  6
BYLAYER
 62
  256
370
   -1
100
AcDbCircle
 10
-105.2304759919461
 20
63.32453123979421
 40
69.17117171727398
100
AcDbArc
 50
-34.85848299706301
 51
-14.05223864470353
  0
ARC
  5
5A
100
AcDbEntity
  8
0
  6
BYLAYER
 62
  256
370
   -1
100
AcDbCircle
 10
-54.71582219881788
 20
52.10929071597037
 40
31.00000347636376
100
AcDbArc
 50
-51.58596493185989
 51
-27.74198533542028
  0
ARC
  5
5B
100
AcDbEntity
  8
0
  6
BYLAYER
 62
  256
370
   -1
100
AcDbCircle
 10
-54.71582219881788
 20
52.10929071597037
 40
29.00000993213511
100
AcDbArc
 50
-47.57133685192591
 51
-24.3394193929321
  0
ARC
  5
5C
100
AcDbEntity
  8
0
  6
BYLAYER
 62
  256
370
   -1
100
AcDbCircle
 10
-105.0849292393587
 20
36.34411949027699
 40
67.7259043779795
100
AcDbArc
 50
-6.61080398270682
 51
8.649437491838988
  0
ARC
  5
5D
100
AcDbEntity
  8
0
  6
BYLAYER
 62
  256
370
   -1
100
AcDbCircle
 10
-104.0704159089547
 20
36.56464702259039
 40
69.17117171727398
100
AcDbArc
 50
-4.860594243260457
 51
15.94776135529652
  0
ARC
  5
5E
100
AcDbEntity
  8
0
  6
BYLAYER
 62
  256
370
   -1
100
AcDbCircle
 10
-54.71582219881788
 20
52.10929071597037
 40
43.99999468744277
100
AcDbArc
 50
-70.35331546647426
 51
-44.28327019945429
  0
ARC
  5
5F
100
AcDbEntity
  8
0
  6
BYLAYER
 62
  256
370
   -1
100
AcDbCircle
 10
-105.0849292393587
 20
36.34411949027699
 40
67.7259043779795
100
AcDbArc
 50
-20.94551957084392
 51
-8.876187744896688
  0
ARC
  5
60
100
AcDbEntity
  8
0
  6
BYLAYER
 62
  256
370
   -1
100
AcDbCircle
 10
-104.0704159089547
 20
36.56464702259039
 40
69.17117171727398
100
AcDbArc
 50
-19.76328130158654
 51
-7.263203690691384
  0
ARC
  5
61
100
AcDbEntity
  8
0
  6
BYLAYER
 62
  256
370
   -1
100
AcDbCircle
 10
-54.71582219881788
 20
52.10929071597037
 40
42.00000253008258
100
AcDbArc
 50
-67.97873503181745
 51
-42.13935335873939
  0
ARC
  5
62
100
AcDbEntity
  8
0
  6
BYLAYER
 62
  256
370
   -1
100
AcDbCircle
 10
-54.71582219881788
 20
52.10929071597037
 40
54.99999480171349
100
AcDbArc
 50
-51.7976080384144
 51
-24.78907019460184
  0
ARC
  5
63
100
AcDbEntity
  8
0
  6
BYLAYER
 62
  256
370
   -1
100
AcDbCircle
 10
-54.71582219881788
 20
52.10929071597037
 40
43.99999468744277
100
AcDbArc
 50
-40.36383342750014
 51
-14.28327019945425
  0
ARC
  5
64
100
AcDbEntity
  8
0
  6
BYLAYER
 62
  256
370
   -1
100
AcDbCircle
 10
-54.71582219881788
 20
52.10929071597037
 40
42.00000253008258
100
AcDbArc
 50
-37.98981088060619
 51
-12.13935335873938
  0
ARC
  5
65
100
AcDbEntity
  8
0
  6
BYLAYER
 62
  256
370
   -1
100
AcDbCircle
 10
-89.68583229856608
 20
13.96993752965732
 40
69.17117171727398
100
AcDbArc
 50
10.23223295176582
 51
22.7368032256314
  0
ARC
  5
66
100
AcDbEntity
  8
0
  6
BYLAYER
 62
  256
370
   -1
100
AcDbCircle
 10
-90.45416284901717
 20
13.27169841923804
 40
67.7259043779795
100
AcDbArc
 50
9.054488192466472
 51
21.12382234997433
  0
ARC
  5
67
100
AcDbEntity
  8
0
  6
BYLAYER
 62
  256
370
   -1
100
AcDbCircle
 10
-54.71582219881788
 20
52.10929071597037
 40
31.00000347636376
100
AcDbArc
 50
-21.58595389115515
 51
2.258014664579747
  0
ARC
  5
68
100
AcDbEntity
  8
0
  6
BYLAYER
 62
  256
370
   -1
100
AcDbCircle
 10
-54.71582219881788
 20
52.10929071597037
 40
29.00000993213511
100
AcDbArc
 50
-17.56449956514259
 51
5.660580607067954
  0
ARC
  5
69
100
AcDbEntity
  8
0
  6
BYLAYER
 62
  256
370
   -1
100
AcDbCircle
 10
-89.68583229856608
 20
13.96993752965732
 40
69.17117171727398
100
AcDbArc
 50
25.14151700293702
 51
45.94776135529652
  0
ARC
  5
6A
100
AcDbEntity
  8
0
  6
BYLAYER
 62
  256
370
   -1
100
AcDbCircle
 10
-90.45416284901717
 20
13.27169841923804
 40
67.7259043779795
100
AcDbArc
 50
23.38920632027406
 51
38.64943749183897
  0
ARC
  5
6B
100
AcDbEntity
  8
0
  6
BYLAYER
 62
  256
370
   -1
100
AcDbCircle
 10
-54.71582219881788
 20
52.10929071597037
 40
54.99999480171349
100
AcDbArc
 50
-21.79760803841441
 51
5.210929805398168
  0
ARC
  5
6C
100
AcDbEntity
  8
0
  6
BYLAYER
 62
  256
370
   -1
100
AcDbCircle
 10
-54.71582219881788
 20
52.10929071597037
 40
43.99999468744277
100
AcDbArc
 50
-10.36383342750017
 51
15.71672980054576
  0
ARC
  5
6D
100
AcDbEntity
  8
0
  6
BYLAYER
 62
  256
370
   -1
100
AcDbCircle
 10
-54.71582219881788
 20
52.10929071597037
 40
42.00000253008258
100
AcDbArc
 50
-7.989810880606171
 51
17.86064664126065
  0
ARC
  5
6E
100
AcDbEntity
  8
0
  6
BYLAYER
 62
  256
370
   -1
100
AcDbCircle
 10
-66.24733694262636
 20
0.6057788400777113
 40
67.7259043779795
100
AcDbArc
 50
39.05448819246647
 51
51.12382234997434
  0
ARC
  5
6F
100
AcDbEntity
  8
0
  6
BYLAYER
 62
  256
370
   -1
100
AcDbCircle
 10
-65.93106272264168
 20
1.594636922842191
 40
69.17117171727398
100
AcDbArc
 50
40.23223295176582
 51
52.73680322563138
  0
ARC
  5
70
100
AcDbEntity
  8
0
  6
BYLAYER
 62
  256
370
   -1
100
AcDbCircle
 10
-66.24733694262636
 20
0.6057788400777113
 40
67.7259043779795
100
AcDbArc
 50
53.38920632027408
 51
68.64943749183898
  0
ARC
  5
71
100
AcDbEntity
  8
0
  6
BYLAYER
 62
  256
370
   -1
100
AcDbCircle
 10
-54.71582219881788
 20
52.10929071597037
 40
31.00000347636376
100
AcDbArc
 50
8.414046108844849
 51
32.25801466457976
  0
ARC
  5
72
100
AcDbEntity
  8
0
  6
BYLAYER
 62
  256
370
   -1
100
AcDbCircle
 10
-54.71582219881788
 20
52.10929071597037
 40
29.00000993213511
100
AcDbArc
 50
12.4355004348575
 51
35.66058060706796
  0
ARC
  5
73
100
AcDbEntity
  8
0
  6
BYLAYER
 62
  256
370
   -1
100
AcDbCircle
 10
-65.93106272264168
 20
1.594636922842191
 40
69.17117171727398
100
AcDbArc
 50
55.14151700293705
 51
75.94776135529652
  0
ARC
  5
74
100
AcDbEntity
  8
0
  6
BYLAYER
 62
  256
370
   -1
100
AcDbCircle
 10
-54.71582219881788
 20
52.10929071597037
 40
54.99999480171349
100
AcDbArc
 50
8.202391961585606
 51
35.21092980539815
  0
ARC
  5
75
100
AcDbEntity
  8
0
  6
BYLAYER
 62
  256
370
   -1
100
AcDbCircle
 10
-54.71582219881788
 20
52.10929071597037
 40
43.99999468744277
100
AcDbArc
 50
19.63616657249985
 51
45.71672980054574
  0
ARC
  5
76
100
AcDbEntity
  8
0
  6
BYLAYER
 62
  256
370
   -1
100
AcDbCircle
 10
-38.9506509731245
 20
1.740183675429563
 40
67.7259043779795
100
AcDbArc
 50
69.05448819246648
 51
81.12382234997433
  0
ARC
  5
77
100
AcDbEntity
  8
0
  6
BYLAYER
 62
  256
370
   -1
100
AcDbCircle
 10
-54.71582219881788
 20
52.10929071597037
 40
42.00000253008258
100
AcDbArc
 50
22.01018911939386
 51
47.86064664126064
  0
ARC
  5
78
100
AcDbEntity
  8
0
  6
BYLAYER
 62
  256
370
   -1
100
AcDbCircle
 10
-39.17117850543789
 20
2.754697005833506
 40
69.17117171727398
100
AcDbArc
 50
70.23223295176584
 51
82.73678563746881
  0
ARC
  5
79
100
AcDbEntity
  8
0
  6
BYLAYER
 62
  256
370
   -1
100
AcDbCircle
 10
-54.71582219881788
 20
52.10929071597037
 40
31.00000347636376
100
AcDbArc
 50
38.41398837054722
 51
62.25801466457973
  0
ARC
  5
7A
100
AcDbEntity
  8
0
  6
BYLAYER
 62
  256
370
   -1
100
AcDbCircle
 10
-38.9506509731245
 20
1.740183675429563
 40
67.7259043779795
100
AcDbArc
 50
83.38920632027408
 51
98.64943749183898
  0
ARC
  5
7B
100
AcDbEntity
  8
0
  6
BYLAYER
 62
  256
370
   -1
100
AcDbCircle
 10
-54.71582219881788
 20
52.10929071597037
 40
29.00000993213511
100
AcDbArc
 50
42.42857178887964
 51
65.66058060706797
  0
ARC
  5
7C
100
AcDbEntity
  8
0
  6
BYLAYER
 62
  256
370
   -1
100
AcDbCircle
 10
-39.17117850543789
 20
2.754697005833506
 40
69.17117171727398
100
AcDbArc
 50
85.13938222643812
 51
105.9477613552965
  0
ARC
  5
7D
100
AcDbEntity
  8
0
  6
BYLAYER
 62
  256
370
   -1
100
AcDbCircle
 10
-54.71582219881788
 20
52.10929071597037
 40
54.99999480171349
100
AcDbArc
 50
38.2023919615856
 51
65.21092980539817
  0
ARC
  5
7E
100
AcDbEntity
  8
0
  6
BYLAYER
 62
  256
370
   -1
100
AcDbCircle
 10
-54.71582219881788
 20
52.10929071597037
 40
43.99999468744277
100
AcDbArc
 50
49.63616657249987
 51
75.71672980054578
  0
ARC
  5
7F
100
AcDbEntity
  8
0
  6
BYLAYER
 62
  256
370
   -1
100
AcDbCircle
 10
-54.71582219881788
 20
52.10929071597037
 40
42.00000253008258
100
AcDbArc
 50
52.01018911939385
 51
77.86064664126064
  0
ARC
  5
80
100
AcDbEntity
  8
0
  6
BYLAYER
 62
  256
370
   -1
100
AcDbCircle
 10
-15.87822990208555
 20
16.37095006577109
 40
67.7259043779795
100
AcDbArc
 50
99.05448819246648
 51
111.1238223499743
  0
ARC
  5
81
100
AcDbEntity
  8
0
  6
BYLAYER
 62
  256
370
   -1
100
AcDbCircle
 10
-16.57646901250482
 20
17.13928061622217
 40
69.17117171727398
100
AcDbArc
 50
100.2322329517658
 51
112.7368032256314
  0
ARC
  5
82
100
AcDbEntity
  8
0
  6
BYLAYER
 62
  256
370
   -1
100
AcDbCircle
 10
-54.71582219881788
 20
52.10929071597037
 40
31.00000347636376
100
AcDbArc
 50
68.41404610884487
 51
92.25801466457975
  0
ARC
  5
83
100
AcDbEntity
  8
0
  6
BYLAYER
 62
  256
370
   -1
100
AcDbCircle
 10
-54.71582219881788
 20
52.10929071597037
 40
29.00000993213511
100
AcDbArc
 50
72.43550043485746
 51
95.660580607068
  0
ARC
  5
84
100
AcDbEntity
  8
0
  6
BYLAYER
 62
  256
370
   -1
100
AcDbCircle
 10
-15.87822990208555
 20
16.37095006577109
 40
67.7259043779795
100
AcDbArc
 50
113.3892063202741
 51
128.649437491839
  0
ARC
  5
85
100
AcDbEntity
  8
0
  6
BYLAYER
 62
  256
370
   -1
100
AcDbCircle
 10
-16.57646901250482
 20
17.13928061622217
 40
69.17117171727398
100
AcDbArc
 50
115.141517002937
 51
135.9477613552965
  0
ARC
  5
86
100
AcDbEntity
  8
0
  6
BYLAYER
 62
  256
370
   -1
100
AcDbCircle
 10
-54.71582219881788
 20
52.10929071597037
 40
29.00000993213511
100
AcDbArc
 50
102.4355004348575
 51
125.6605806070679
  0
ARC
  5
87
100
AcDbEntity
  8
0
  6
BYLAYER
 62
  256
370
   -1
100
AcDbCircle
 10
-54.71582219881788
 20
52.10929071597037
 40
31.00000347636376
100
AcDbArc
 50
98.41404610884487
 51
122.2580146645798
  0
ARC
  5
88
100
AcDbEntity
  8
0
  6
BYLAYER
 62
  256
370
   -1
100
AcDbCircle
 10
-4.201168405689685
 20
40.89405019214657
 40
69.17117171727398
100
AcDbArc
 50
145.141517002937
 51
165.9477613552965
  0
ARC
  5
89
100
AcDbEntity
  8
0
  6
BYLAYER
 62
  256
370
   -1
100
AcDbCircle
 10
-3.212310322925212
 20
40.5777759721619
 40
67.7259043779795
100
AcDbArc
 50
143.3892063202741
 51
158.649437491839
  0
ARC
  5
8A
100
AcDbEntity
  8
0
  6
BYLAYER
 62
  256
370
   -1
100
AcDbCircle
 10
-54.71582219881788
 20
52.10929071597037
 40
42.00000253008258
100
AcDbArc
 50
82.01018911939386
 51
107.8606466412606
  0
ARC
  5
8B
100
AcDbEntity
  8
0
  6
BYLAYER
 62
  256
370
   -1
100
AcDbCircle
 10
-54.71582219881788
 20
52.10929071597037
 40
43.99999468744277
100
AcDbArc
 50
79.63616657249986
 51
105.7167298005458
  0
ARC
  5
8C
100
AcDbEntity
  8
0
  6
BYLAYER
 62
  256
370
   -1
100
AcDbCircle
 10
-3.212310322925212
 20
40.5777759721619
 40
67.7259043779795
100
AcDbArc
 50
129.0544881924665
 51
141.1238223499743
  0
ARC
  5
8D
100
AcDbEntity
  8
0
  6
BYLAYER
 62
  256
370
   -1
100
AcDbCircle
 10
-4.201168405689685
 20
40.89405019214657
 40
69.17117171727398
100
AcDbArc
 50
130.2322329517658
 51
142.7368032256314
  0
ARC
  5
8E
100
AcDbEntity
  8
0
  6
BYLAYER
 62
  256
370
   -1
100
AcDbCircle
 10
-54.71582219881788
 20
52.10929071597037
 40
54.99999480171349
100
AcDbArc
 50
68.20239196158562
 51
95.21092980539817
  0
ARC
  5
8F
100
AcDbEntity
  8
0
  6
BYLAYER
 62
  256
370
   -1
100
AcDbCircle
 10
-54.71582219881788
 20
52.10929071597037
 40
54.99999480171349
100
AcDbArc
 50
98.2023919615856
 51
125.2109298053982
  0
ARC
  5
90
100
AcDbEntity
  8
0
  6
BYLAYER
 62
  256
370
   -1
100
AcDbCircle
 10
-54.71582219881788
 20
52.10929071597037
 40
42.00000253008258
100
AcDbArc
 50
112.0101891193939
 51
137.8606466412606
  0
ARC
  5
91
100
AcDbEntity
  8
0
  6
BYLAYER
 62
  256
370
   -1
100
AcDbCircle
 10
-54.71582219881788
 20
52.10929071597037
 40
43.99999468744277
100
AcDbArc
 50
109.6361665724998
 51
135.7167298005457
  0
ARC
  5
92
100
AcDbEntity
  8
0
  6
BYLAYER
 62
  256
370
   -1
100
AcDbCircle
 10
-5.361228488681007
 20
67.65393440935036
 40
69.17117171727398
100
AcDbArc
 50
160.2322329517658
 51
172.7368032256314
  0
ARC
  5
93
100
AcDbEntity
  8
0
  6
BYLAYER
 62
  256
370
   -1
100
AcDbCircle
 10
-4.346715158277064
 20
67.87446194166375
 40
67.7259043779795
100
AcDbArc
 50
159.0544881924665
 51
171.1238223499743
  0
ARC
  5
94
100
AcDbEntity
  8
0
  6
BYLAYER
 62
  256
370
   -1
100
AcDbCircle
 10
-54.71582219881788
 20
52.10929071597037
 40
31.00000347636376
100
AcDbArc
 50
128.4140461088448
 51
152.2580146645798
  0
ARC
  5
95
100
AcDbEntity
  8
0
  6
BYLAYER
 62
  256
370
   -1
100
AcDbCircle
 10
-54.71582219881788
 20
52.10929071597037
 40
29.00000993213511
100
AcDbArc
 50
132.4355004348575
 51
155.660580607068
  0
ARC
  5
96
100
AcDbEntity
  8
0
  6
BYLAYER
 62
  256
370
   -1
100
AcDbCircle
 10
-5.361228488681007
 20
67.65393440935036
 40
69.17117171727398
100
AcDbArc
 50
175.141517002937
 51
-164.8766728721412
  0
ARC
  5
97
100
AcDbEntity
  8
0
  6
BYLAYER
 62
  256
370
   -1
100
AcDbCircle
 10
-4.346715158277064
 20
67.87446194166375
 40
67.7259043779795
100
AcDbArc
 50
173.3892063202741
 51
-171.350562508161
  0
ARC
  5
98
100
AcDbEntity
  8
0
  6
BYLAYER
 62
  256
370
   -1
100
AcDbCircle
 10
-54.71582219881788
 20
52.10929071597037
 40
54.99999480171349
100
AcDbArc
 50
128.2023919615856
 51
155.2109298053981
  0
ARC
  5
99
100
AcDbEntity
  8
0
  6
BYLAYER
 62
  256
370
   -1
100
AcDbCircle
 10
-54.71582219881788
 20
52.10929071597037
 40
43.99999468744277
100
AcDbArc
 50
139.6361665724998
 51
165.7167298005457
  0
ARC
  5
9A
100
AcDbEntity
  8
0
  6
BYLAYER
 62
  256
370
   -1
100
AcDbCircle
 10
-54.71582219881788
 20
52.10929071597037
 40
42.00000253008258
100
AcDbArc
 50
142.0101891193939
 51
167.8606466412606
  0
ARC
  5
9B
100
AcDbEntity
  8
0
  6
BYLAYER
 62
  256
370
   -1
100
AcDbCircle
 10
-54.71582219881788
 20
52.10929071597037
 40
31.00000347636376
100
AcDbArc
 50
158.4140468865671
 51
-177.7419853354203
  0
ARC
  5
9C
100
AcDbEntity
  8
0
  6
BYLAYER
 62
  256
370
   -1
100
AcDbCircle
 10
-54.71582219881788
 20
52.10929071597037
 40
29.00000993213511
100
AcDbArc
 50
162.4286445737289
 51
-174.3394193929321
  0
ARC
  5
9D
100
AcDbEntity
  8
0
  6
BYLAYER
 62
  256
370
   -1
100
AcDbCircle
 10
-54.71582219881788
 20
52.10929071597037
 40
54.99999480171349
100
AcDbArc
 50
158.2023919615856
 51
-174.7890701946018
  0
ARC
  5
9E
100
AcDbEntity
  8
0
  6
BYLAYER
 62
  256
370
   -1
100
AcDbCircle
 10
-54.71582219881788
 20
52.10929071597037
 40
43.99999468744277
100
AcDbArc
 50
169.6466662724209
 51
-164.2832701994543
  0
ARC
  5
9F
100
AcDbEntity
  8
0
  6
BYLAYER
 62
  256
370
   -1
100
AcDbCircle
 10
-54.71582219881788
 20
52.10929071597037
 40
42.00000253008258
100
AcDbArc
 50
172.0212774489813
 51
-162.1393533587394
  0
ARC
  5
A0
100
AcDbEntity
  8
0
  6
BYLAYER
 62
  256
370
   -1
100
AcDbCircle
 10
-54.71582219881788
 20
52.10929071597037
 40
54.99999480171349
100
AcDbArc
 50
-171.7976080384144
 51
-144.7890701946018
  0
ARC
  5
A1
100
AcDbEntity
  8
0
  6
BYLAYER
 62
  256
370
   -1
100
AcDbCircle
 10
-54.71582219881788
 20
52.10929071597037
 40
43.99999468744277
100
AcDbArc
 50
-160.3638334275002
 51
-134.2832701994543
  0
ARC
  5
A2
100
AcDbEntity
  8
0
  6
BYLAYER
 62
  256
370
   -1
100
AcDbCircle
 10
-54.71582219881788
 20
52.10929071597037
 40
42.00000253008258
100
AcDbArc
 50
-157.9898108806062
 51
-132.1393533587394
  0
ARC
  5
A3
100
AcDbEntity
  8
0
  6
BYLAYER
 62
  256
370
   -1
100
AcDbCircle
 10
-54.71582219881788
 20
52.10929071597037
 40
29.00000993213511
100
AcDbArc
 50
-137.5644995651426
 51
-114.3394193929321
  0
ARC
  5
A4
100
AcDbEntity
  8
0
  6
BYLAYER
 62
  256
370
   -1
100
AcDbCircle
 10
-54.71582219881788
 20
52.10929071597037
 40
31.00000347636376
100
AcDbArc
 50
-141.5859538911551
 51
-117.7419853354203
  0
ARC
  5
A5
100
AcDbEntity
  8
0
  6
BYLAYER
 62
  256
370
   -1
100
AcDbCircle
 10
-54.71582219881788
 20
52.10929071597037
 40
29.00000993213511
100
AcDbArc
 50
-167.5644995651426
 51
-144.3394193929322
  0
ARC
  5
A6
100
AcDbEntity
  8
0
  6
BYLAYER
 62
  256
370
   -1
100
AcDbCircle
 10
-54.71582219881788
 20
52.10929071597037
 40
31.00000347636376
100
AcDbArc
 50
-171.5859538911552
 51
-147.7419853354203
  0
ARC
  5
A7
100
AcDbEntity
  8
0
  6
BYLAYER
 62
  256
370
   -1
100
AcDbCircle
 10
-18.97748154861861
 20
90.94688301270271
 40
67.7259043779795
100
AcDbArc
 50
174.8329927106649
 51
-173.1169206613349
  0
ARC
  5
A8
100
AcDbEntity
  8
0
  6
BYLAYER
 62
  256
370
   -1
100
AcDbCircle
 10
-43.18430745500937
 20
103.612802591863
 40
67.7259043779795
100
AcDbArc
 50
-155.1670072893351
 51
-143.116920661335
  0
ARC
  5
A9
100
AcDbEntity
  8
0
  6
BYLAYER
 62
  256
370
   -1
100
AcDbCircle
 10
-70.48099342451125
 20
102.4783977565112
 40
67.7259043779795
100
AcDbArc
 50
-125.1670072893351
 51
-113.1169206613349
  0
ARC
  5
AA
100
AcDbEntity
  8
0
  6
BYLAYER
 62
  256
370
   -1
100
AcDbCircle
 10
-93.5534144955502
 20
87.84763136616965
 40
67.7259043779795
100
AcDbArc
 50
-95.16700728933515
 51
-83.11692066133499
  0
ARC
  5
AB
100
AcDbEntity
  8
0
  6
BYLAYER
 62
  256
370
   -1
100
AcDbCircle
 10
-19.74581209906967
 20
90.24864390228343
 40
69.17117171727399
100
AcDbArc
 50
175.7872195306963
 51
-171.9862223570189
  0
ARC
  5
AC
100
AcDbEntity
  8
0
  6
BYLAYER
 62
  256
370
   -1
100
AcDbCircle
 10
-43.50058167499405
 20
102.6239445090986
 40
69.17117171727399
100
AcDbArc
 50
-154.2127804693038
 51
-141.9817690694045
  0
ARC
  5
AD
100
AcDbEntity
  8
0
  6
BYLAYER
 62
  256
370
   -1
100
AcDbCircle
 10
-70.26046589219784
 20
101.4638844261072
 40
69.17117171727398
100
AcDbArc
 50
-124.2127804693038
 51
-111.9862223570189
  0
ARC
  5
AE
100
AcDbEntity
  8
0
  6
BYLAYER
 62
  256
370
   -1
100
AcDbCircle
 10
-92.85517538513092
 20
87.07930081571857
 40
69.17117171727398
100
AcDbArc
 50
-94.21278046930378
 51
-81.98175094180327
  0
ARC
  5
AF
100
AcDbEntity
  8
0
  6
BYLAYER
 62
  256
370
   -1
100
AcDbCircle
 10
-93.5534144955502
 20
87.84763136616965
 40
67.72590437797949
100
AcDbArc
 50
-80.94551180753353
 51
-68.87617765002571
  0
ARC
  5
B0
100
AcDbEntity
  8
0
  6
BYLAYER
 62
  256
370
   -1
100
AcDbCircle
 10
-92.85517538513092
 20
87.07930081571857
 40
69.17724074136979
100
AcDbArc
 50
-79.7632539701634
 51
-67.26319677436859
  0
ARC
  5
B1
100
AcDbEntity
  8
0
  6
BYLAYER
 62
  256
370
   -1
100
AcDbCircle
 10
-93.5534144955502
 20
87.84763136616965
 40
67.72590437797948
100
AcDbArc
 50
-66.61079367972593
 51
-52.19504375478285
  0
ARC
  5
B2
100
AcDbEntity
  8
0
  6
BYLAYER
 62
  256
370
   -1
100
AcDbCircle
 10
-92.85517538513092
 20
87.07930081571857
 40
69.17117171727399
100
AcDbArc
 50
-64.85848299706295
 51
-44.87667287214131
  0
ARC
  5
B3
100
AcDbEntity
  8
0
  6
BYLAYER
 62
  256
370
   -1
100
AcDbCircle
 10
-19.74581209906967
 20
90.24864390228343
 40
69.17117171727398
100
AcDbArc
 50
-169.7677670482342
 51
-157.2631925427531
  0
ARC
  5
B4
100
AcDbEntity
  8
0
  6
BYLAYER
 62
  256
370
   -1
100
AcDbCircle
 10
-18.97748154861861
 20
90.94688301270271
 40
67.7259043779795
100
AcDbArc
 50
-170.9455118075335
 51
-158.8761776500257
  0
ARC
  5
B5
100
AcDbEntity
  8
0
  6
BYLAYER
 62
  256
370
   -1
100
AcDbCircle
 10
-19.74581209906967
 20
90.24864390228343
 40
69.16881076324498
100
AcDbArc
 50
-154.860589527223
 51
-134.8720070640513
  0
ARC
  5
B6
100
AcDbEntity
  8
0
  6
BYLAYER
 62
  256
370
   -1
100
AcDbCircle
 10
-18.97748154861861
 20
90.94688301270271
 40
67.7259043779795
100
AcDbArc
 50
-156.6107936797259
 51
-142.1950437547828
  0
ARC
  5
B7
100
AcDbEntity
  8
0
  6
BYLAYER
 62
  256
370
   -1
100
AcDbCircle
 10
-43.18430745500937
 20
103.612802591863
 40
67.72590437797952
100
AcDbArc
 50
-140.9455118075335
 51
-128.8761776500257
  0
ARC
  5
B8
100
AcDbEntity
  8
0
  6
BYLAYER
 62
  256
370
   -1
100
AcDbCircle
 10
-43.50058167499405
 20
102.6239445090986
 40
69.17724206632522
100
AcDbArc
 50
-139.7632898593472
 51
-127.2631967743686
  0
ARC
  5
B9
100
AcDbEntity
  8
0
  6
BYLAYER
 62
  256
370
   -1
100
AcDbCircle
 10
-70.48099342451125
 20
102.4783977565112
 40
67.72590437797949
100
AcDbArc
 50
-110.9455118075335
 51
-98.8761776500257
  0
ARC
  5
BA
100
AcDbEntity
  8
0
  6
BYLAYER
 62
  256
370
   -1
100
AcDbCircle
 10
-70.26046589219784
 20
101.4638844261072
 40
69.17117171727396
100
AcDbArc
 50
-109.7677670482342
 51
-97.26319677436861
  0
ARC
  5
BB
100
AcDbEntity
  8
0
  6
BYLAYER
 62
  256
370
   -1
100
AcDbCircle
 10
-70.26046589219784
 20
101.4638844261072
 40
69.17117171727398
100
AcDbArc
 50
-94.85848299706299
 51
-74.87667287214133
  0
ARC
  5
BC
100
AcDbEntity
  8
0
  6
BYLAYER
 62
  256
370
   -1
100
AcDbCircle
 10
-70.48099342451125
 20
102.4783977565112
 40
67.72590437797948
100
AcDbArc
 50
-96.61079367972594
 51
-82.19504375478286
  0
ARC
  5
BD
100
AcDbEntity
  8
0
  6
BYLAYER
 62
  256
370
   -1
100
AcDbCircle
 10
-43.50058167499405
 20
102.6239445090986
 40
69.17117171727398
100
AcDbArc
 50
-124.858482997063
 51
-104.8766728721413
  0
ARC
  5
BE
100
AcDbEntity
  8
0
  6
BYLAYER
 62
  256
370
   -1
100
AcDbCircle
 10
-43.18430745500937
 20
103.612802591863
 40
67.7259043779795
100
AcDbArc
 50
-126.6107936797259
 51
-112.1898487445034
  0
ARC
  5
BF
100
AcDbEntity
  8
0
  6
BYLAYER
 62
  256
370
   -1
100
AcDbCircle
 10
-72.3298330582595
 20
49.55516463262393
 40
0.2
100
AcDbArc
 50
-142.1950437547818
 51
15.12332712785796
  0
ARC
  5
C0
100
AcDbEntity
  8
0
  6
BYLAYER
 62
  256
370
   -1
100
AcDbCircle
 10
-68.68727100595183
 20
41.08803460202297
 40
0.2
100
AcDbArc
 50
-112.1898487445049
 51
45.12799293594956
  0
ARC
  5
C1
100
AcDbEntity
  8
0
  6
BYLAYER
 62
  256
370
   -1
100
AcDbCircle
 10
-43.69687869645063
 20
38.13217289083212
 40
0.2
100
AcDbArc
 50
-22.19504375478338
 51
135.1233271278592
  0
ARC
  5
C2
100
AcDbEntity
  8
0
  6
BYLAYER
 62
  256
370
   -1
100
AcDbCircle
 10
-52.16169611547151
 20
34.49527985652873
 40
0.2
100
AcDbArc
 50
-52.19504375478212
 51
105.1233271278599
  0
ARC
  5
C3
100
AcDbEntity
  8
0
  6
BYLAYER
 62
  256
370
   -1
100
AcDbCircle
 10
-61.3108895558923
 20
35.57804680748578
 40
0.2
100
AcDbArc
 50
-82.19504375478246
 51
75.12332712785883
  0
ENDSEC
  0
SECTION
  2
OBJECTS
  0
DICTIONARY
  5
C
330
0
100
AcDbDictionary
281
    1
  3
ACAD_GROUP
350
D
  0
DICTIONARY
  5
D
330
C
100
AcDbDictionary
281
    1
  0
ENDSEC
  0
EOF
